<?xml version="1.0" encoding="UTF-8"?>
<!DOCTYPE svg PUBLIC "-//W3C//DTD SVG 1.1//EN" "http://www.w3.org/Graphics/SVG/1.1/DTD/svg11.dtd">
<!-- Creator: CorelDRAW X5 -->
<svg xmlns="http://www.w3.org/2000/svg" xml:space="preserve" width="210mm" height="297mm" style="shape-rendering:geometricPrecision; text-rendering:geometricPrecision; image-rendering:optimizeQuality; fill-rule:evenodd; clip-rule:evenodd"
viewBox="0 0 21000 29700"
 xmlns:xlink="http://www.w3.org/1999/xlink">
 <defs>
  <style type="text/css">
   <![CDATA[
    .str0 {stroke:#E31E24;stroke-width:20}
    .str1 {stroke:#003399;stroke-width:20}
    .fil0 {fill:#FEFEFE}
    .fil3 {fill:#003399}
    .fil7 {fill:#4DAD91}
    .fil6 {fill:#57B395}
    .fil8 {fill:#58AB92}
    .fil4 {fill:#595818}
    .fil9 {fill:#67AA95}
    .fil5 {fill:#6B5208}
    .fil10 {fill:#6DAE99}
    .fil2 {fill:#FED700}
    .fil1 {fill:red}
    .fil11 {fill:white;fill-rule:nonzero}
   ]]>
  </style>
 </defs>
 <g id="Capa_x0020_1">
  <metadata id="CorelCorpID_0Corel-Layer"/>
  <g id="_214525624">
   <path class="fil0" d="M5222 5005c677,-7 1411,81 2106,88 884,9 2058,-67 2906,-331 527,-164 500,-266 793,-151 492,194 1183,381 1722,446 1164,139 1965,166 3122,124 525,-19 429,-133 774,242 350,381 729,741 1074,1108 277,295 849,794 1060,1100 -39,150 -224,439 -304,604 -102,210 -182,412 -274,625 -176,406 -324,926 -420,1366 -485,2215 26,4117 534,6248 461,1932 1108,4024 -550,5584 -1159,1090 -3621,1619 -5139,2039 -1818,503 -1907,1170 -2210,1377 -154,-106 -380,-550 -979,-838 -2174,-1046 -4635,-1071 -6322,-2690 -692,-664 -985,-1639 -976,-2624 32,-3359 2766,-6221 1126,-10474l-554 -1224 2512 -2619z"/>
   <path class="fil1 str0" d="M3762 12938c130,41 1212,1123 1367,1288 661,706 1941,1889 2694,2637 110,109 212,218 329,326l3715 3643c294,287 1121,1124 1357,1326 281,242 729,755 1003,989 123,106 216,218 317,342 558,-157 1062,-382 1596,-574 244,-88 509,-231 742,-342 290,-138 401,-251 639,-427 -105,-67 -773,-719 -978,-909 -449,-418 -1149,-1152 -1631,-1612l-1627 -1585c-363,-346 -976,-991 -1308,-1281 -107,-93 -234,-217 -332,-319 -210,-218 -430,-411 -644,-634 -425,-442 -884,-860 -1308,-1281 -418,-415 -854,-857 -1304,-1284 -114,-108 -1247,-1150 -1290,-1311l-3225 5 -113 1002z"/>
   <path class="fil2" d="M5222 5005c677,-7 1411,81 2106,88 884,9 2058,-67 2906,-331 527,-164 500,-266 793,-151 492,194 1183,381 1722,446 1164,139 1965,166 3122,124 525,-19 429,-133 774,242 350,381 729,741 1074,1108 277,295 849,794 1060,1100 -39,150 -224,439 -304,604 -102,210 -182,412 -274,625 -176,406 -324,926 -420,1366 -485,2215 26,4117 534,6248 461,1932 1108,4024 -550,5584 -1159,1090 -3621,1619 -5139,2039 -1818,503 -1907,1170 -2210,1377 -154,-106 -380,-550 -979,-838 -2174,-1046 -4635,-1071 -6322,-2690 -692,-664 -985,-1639 -976,-2624 32,-3359 2766,-6221 1126,-10474l-554 -1224 2512 -2619zm-3196 2657c76,191 222,425 313,624 843,1832 1091,3471 643,5514 -421,1915 -1529,4065 -1360,6053 432,5063 6299,3635 8761,6159 94,-31 386,-345 488,-432 479,-410 1219,-760 1818,-966 939,-322 1901,-543 2853,-822 1860,-545 3536,-1520 3759,-3628 316,-2996 -1643,-6163 -931,-9847 97,-500 235,-950 418,-1422 179,-461 390,-803 603,-1243l-2928 -3139c-245,6 -526,64 -775,80 -944,62 -1316,82 -2312,-44 -434,-55 -934,-178 -1349,-311 -1862,-595 -566,-533 -2468,-46 -933,239 -2008,322 -2980,332 -445,4 -1232,-70 -1618,-9l-2935 3146z"/>
   <path class="fil1" d="M3030 7424l4076 -28c378,-841 1402,-1632 2270,-1888 499,-147 688,-188 1226,-189 835,-2 1487,185 2199,612 405,243 812,614 1097,992 92,123 204,324 290,421 153,77 3596,-51 4180,-20 -431,-456 -1135,-1124 -1516,-1547 -109,-121 -401,-465 -532,-505 -114,-34 -1693,23 -2007,16 -785,-18 -1922,-167 -2692,-384 -1223,-344 -327,-329 -1541,-10l-1041 218c-251,37 -1543,70 -1772,66l-1995 -69 -2240 2315z"/>
   <path class="fil3 str1" d="M17501 11943c11,-392 38,-814 93,-1195 26,-181 55,-365 88,-539 33,-179 97,-338 138,-526l-3128 -1c-159,1495 -810,1965 -923,2253l3732 8z"/>
   <path class="fil3 str1" d="M3873 11938l3643 -2c-131,-276 -547,-603 -815,-1580 -63,-228 -79,-449 -133,-688l-2980 -64c38,144 111,349 141,499 30,149 55,414 77,575 60,443 35,816 67,1260z"/>
   <path class="fil4" d="M2027 7662l2935 -3146c386,-62 1173,13 1618,9 973,-9 2048,-93 2980,-332 1902,-487 605,-550 2468,46 415,133 916,256 1349,311 996,126 1368,106 2312,44 249,-16 529,-75 775,-80l2928 3139c-213,439 -424,781 -603,1243 -183,472 -321,922 -418,1422 -712,3684 1247,6851 931,9847 -223,2108 -1899,3082 -3759,3628 -952,279 -1914,500 -2853,822 -600,206 -1339,556 -1818,966 -102,88 -394,401 -488,432 -2462,-2524 -8329,-1097 -8761,-6159 -170,-1988 939,-4138 1360,-6053 449,-2043 200,-3682 -643,-5514 -91,-199 -237,-433 -313,-624zm8834 -3960l-149 0c-206,176 -946,352 -1252,425 -913,217 -1968,307 -2911,315l-1596 -41 -3034 3207c44,194 236,492 325,680 97,206 210,444 284,642 644,1718 750,3006 369,4849 -423,2044 -1546,4006 -1362,6168 411,4839 6250,3792 8616,5971 111,102 171,169 268,220 133,-92 328,-338 483,-469 544,-459 1192,-729 1834,-979 873,-340 1962,-559 2882,-830 1945,-574 3465,-1498 3775,-3666 256,-1787 -657,-4481 -953,-6431 -180,-1182 -182,-2280 24,-3452 252,-1429 990,-2526 1020,-2682 -198,-260 -2934,-3179 -2987,-3197 -219,-7 -547,49 -781,69 -269,23 -506,39 -778,45 -545,12 -1040,-12 -1559,-89 -491,-73 -2262,-513 -2516,-756z"/>
   <path class="fil5" d="M3030 7424l2240 -2315 1995 69c228,4 1521,-29 1772,-66l1041 -218c1214,-319 318,-334 1541,10 771,217 1907,366 2692,384 314,7 1894,-50 2007,-16 131,39 423,384 532,505 381,423 1085,1091 1516,1547l323 330c-299,602 -456,857 -686,1485 -55,150 -122,425 -185,543 -41,189 -105,347 -138,526 -32,174 -62,358 -88,539 -55,381 -82,804 -93,1195 8,37 31,1038 90,1448 67,466 124,911 230,1366 201,860 404,1697 613,2557 210,862 414,1952 265,2838 -131,779 -558,1546 -1179,1996 -237,176 -349,289 -639,427 -233,111 -498,254 -742,342 -534,192 -1038,417 -1596,574 -1368,455 -2741,499 -3771,1457 -118,110 -266,332 -356,393 -218,-186 -171,-300 -723,-650 -2605,-1652 -8947,-916 -7151,-7445 199,-724 443,-1404 663,-2113 240,-775 392,-1398 555,-2195l113 -1002c-32,-445 -7,-818 -67,-1260 -22,-161 -47,-426 -77,-575 -30,-150 -103,-355 -141,-499 -23,-241 -239,-773 -336,-1012 -124,-303 -342,-652 -445,-930l222 -238zm2192 -2418l-2512 2619 554 1224c1640,4253 -1095,7115 -1126,10474 -9,985 285,1961 976,2624 1688,1619 4149,1644 6322,2690 599,288 825,732 979,838 303,-207 392,-874 2210,-1377 1518,-420 3981,-950 5139,-2039 1658,-1560 1011,-3652 550,-5584 -508,-2131 -1019,-4033 -534,-6248 96,-440 245,-960 420,-1366 92,-213 172,-415 274,-625 80,-165 265,-455 304,-604 -211,-305 -783,-804 -1060,-1100 -345,-367 -724,-727 -1074,-1108 -345,-375 -249,-261 -774,-242 -1157,42 -1958,15 -3122,-124 -539,-65 -1230,-252 -1722,-446 -293,-115 -266,-14 -793,151 -848,264 -2021,340 -2906,331 -695,-7 -1429,-95 -2106,-88z"/>
   <path class="fil3 str1" d="M13641 14218c114,84 765,1446 845,1664l490 -11 -4 -2701 -434 9c-21,275 42,1624 -37,1737 -58,-172 -770,-1671 -844,-1755l-518 3c-45,174 -58,2532 -19,2740l519 -3 3 -1681z"/>
   <path class="fil3 str1" d="M5344 21049c-184,-204 -225,-205 -213,-543 6,-189 105,-445 310,-411 311,51 435,927 -97,954zm-68 -2054c328,-299 521,425 265,598 -321,217 -511,-374 -265,-598zm495 858c214,-305 333,-416 234,-867 -67,-304 -280,-512 -611,-509 -314,3 -527,236 -586,539 -28,145 -26,393 25,530 63,169 138,182 216,307 -129,160 -193,172 -263,391 -61,190 -59,407 -32,604 119,858 1211,887 1323,-27 59,-477 8,-653 -307,-968z"/>
   <path class="fil3 str1" d="M12549 14944c-250,275 -886,463 -875,-454 3,-236 61,-494 254,-639 248,-187 449,37 644,114l-12 -785c-1970,-622 -1759,3465 -5,2641 30,-142 31,-741 -7,-877z"/>
   <path class="fil3 str1" d="M16883 14979c-212,70 -401,299 -651,148 -336,-202 -314,-986 -9,-1252 250,-218 456,2 666,65l-16 -766c-1983,-645 -1666,3545 -8,2650 62,-209 25,-603 17,-845z"/>
   <path class="fil3 str1" d="M6313 19273l686 0c-91,391 -685,2095 -681,2242l458 0c53,-70 855,-2765 863,-2932l-1359 -6c-14,190 -30,539 33,695z"/>
   <path class="fil3 str1" d="M3416 19089l267 12 6 2405 413 -10c15,-316 29,-2761 -15,-2894 -117,-42 -325,-24 -472,-14l-200 501z"/>
   <path class="fil6" d="M7765 10956c239,449 790,813 1341,881 123,15 252,14 376,19 127,6 187,32 310,46 -73,114 -210,192 -205,332l299 88c147,-169 192,-419 455,-432 -1,-5 -11,-71 -11,-74 11,-85 -6,-21 22,-65 295,245 383,209 754,148 180,136 186,208 271,408l301 -24 22 -105c-19,-128 -303,-324 -367,-409 -104,-19 -74,-54 -283,-91 -2,0 -861,25 -1098,-92 -192,-95 -268,-270 -414,-429 -80,-87 -388,-357 -408,-397 -87,-29 -41,3 -106,-34 38,92 88,121 137,216 292,563 228,338 388,593 -138,31 -896,-52 -1060,-106 -231,-75 -609,-293 -725,-474z"/>
   <path class="fil7" d="M7303 10031c35,79 208,476 210,510l47 32c32,30 21,19 49,53 173,214 374,398 632,517 116,53 946,280 997,251 -163,-165 -308,-478 -364,-720 -99,-135 -147,-462 -333,-531 16,453 138,617 226,921 -231,-100 -420,-243 -687,-348 -172,-68 -522,-284 -551,-464 -66,-43 -59,-11 -139,-164l-95 -181 8 125z"/>
   <path class="fil6" d="M7321 8285c-51,717 116,815 443,1247 80,106 119,194 203,298 18,-136 -6,-214 60,-306 7,-248 404,-700 421,-1086 -52,31 -265,275 -336,352 -107,116 -122,172 -193,305 -80,151 0,64 -90,89l-246 -594c-102,-337 -75,-434 -71,-803 -88,118 -173,326 -191,498z"/>
   <path class="fil8" d="M7709 10232c228,20 458,365 703,419 -6,-236 -43,-427 -50,-682 -5,-178 53,-510 -67,-629 -129,195 -136,426 -158,667l-12 230c-119,-68 -185,-211 -289,-309 -670,-636 -375,-578 -635,-993 -5,452 37,858 389,1178l118 119z"/>
   <path class="fil8" d="M7861 8833c113,-138 192,-328 469,-506 192,-123 415,-341 444,-583 -367,96 -832,679 -833,679 -23,-221 -100,-894 -40,-1097 24,-82 92,-182 118,-291 -231,158 -356,537 -369,813 -14,289 121,782 211,985z"/>
   <path class="fil8" d="M8618 6567c-226,160 -366,248 -458,525 -103,313 -88,627 -87,956 107,-48 194,-151 302,-215 465,-276 494,-179 805,-678l8 -75c-455,388 -356,141 -911,637 6,-109 122,-619 162,-729 71,-196 302,-294 387,-475l-207 53z"/>
   <path class="fil8" d="M13198 11173c209,-130 426,-243 486,-505l-185 2c-46,43 -802,290 -862,565l385 1c-94,94 -203,102 -144,230 101,46 92,30 180,-35 22,-129 0,-94 -13,-228l152 -30z"/>
   <path class="fil7" d="M13955 10000l115 -281 37 -422c-105,76 -136,143 -229,239 -72,74 -144,111 -221,184 -170,161 -244,349 -296,573 332,-8 385,-202 594,-293z"/>
   <path class="fil7" d="M13928 8036l-24 -70 -64 -12c-129,612 -241,140 -239,1185 142,-50 273,-249 330,-388 93,-229 42,-484 -2,-714z"/>
   <path class="fil7" d="M9355 6829c48,-68 79,-96 158,-102 76,-102 91,-82 183,-154 -509,-71 -1079,240 -1188,729l847 -472z"/>
   <path class="fil7" d="M11444 11688l5 -4c49,88 93,106 369,60 226,-38 646,-248 682,-492 -242,12 -390,33 -605,136 -120,58 -230,143 -336,221l-115 79z"/>
   <path class="fil7" d="M11783 6703c153,56 489,480 873,449 0,-187 -182,-364 -336,-458 -240,-146 -379,-151 -658,-122 92,93 60,25 121,131z"/>
   <path class="fil7" d="M13513 7435c-118,-125 -100,-331 -317,-477 -16,307 -75,878 183,1065 180,-252 87,-317 134,-587z"/>
   <path class="fil8" d="M12348 11931c32,-19 175,-69 242,-98 86,-37 175,-109 228,-117 10,-22 35,-91 42,-101l-419 -21c-101,27 -95,216 -757,248 146,149 459,101 663,90z"/>
   <path class="fil8" d="M12426 7764l328 240 455 103c-25,-190 -119,-161 -248,-243 -131,-84 -168,-182 -269,-277l-319 25 54 153z"/>
   <path class="fil7" d="M12998 8764c200,125 185,278 457,316 -8,-174 -4,-100 -116,-227 -60,-68 -97,-144 -120,-224 -72,-249 -99,-313 -391,-288l169 423z"/>
   <path class="fil8" d="M12515 10680l13 398c171,-8 160,-264 211,-405 87,-237 185,-169 104,-497l-121 4c-61,163 -198,238 -207,499z"/>
   <path class="fil7" d="M13252 10187c70,-160 -21,-214 -31,-372 -10,-161 38,-273 39,-422 -126,-86 -106,-109 -265,-128 -15,249 9,824 257,922z"/>
   <path class="fil8" d="M11830 7249c422,76 213,72 718,47 -89,-89 -310,-115 -446,-201 -223,-141 -140,-170 -460,-90 -17,145 77,172 187,244z"/>
   <path class="fil8" d="M11974 10946c-103,91 -151,51 -274,184 -80,86 -139,170 -200,274 18,114 -30,52 37,97 176,-181 378,-293 642,-334l9 -265 -214 44z"/>
   <path class="fil9" d="M12097 6485c306,122 576,216 624,601l48 -14c-42,-375 -193,-733 -639,-724 -19,32 -18,14 -29,67 0,0 -5,69 -5,70z"/>
   <path class="fil8" d="M13266 10666l0 -1c20,-127 46,-195 -4,-301 -198,-28 -488,319 -489,523 123,-112 325,-211 494,-221z"/>
   <path class="fil8" d="M13369 9798c134,-47 39,5 122,-89 30,-34 44,-51 76,-80 53,-48 110,-83 160,-133 -18,-114 -57,-232 -160,-268 -145,151 -219,363 -198,571z"/>
   <path class="fil8" d="M13075 7772c-39,-196 -21,-331 -52,-501 -141,-62 -120,-63 -284,-56 32,228 126,453 336,557z"/>
   <path class="fil6" d="M13331 8147c-48,210 15,439 108,610l127 -504c-79,-89 -130,-141 -235,-106z"/>
   <path class="fil10" d="M13566 10516c171,16 220,29 257,-159l-135 -40c-130,62 -132,56 -122,199z"/>
   <path class="fil9" d="M12815 6935l165 21c36,-206 12,-220 -183,-219l18 198z"/>
   <path class="fil9" d="M13190 9023c-107,-47 -37,-42 -139,-4 -71,142 29,192 163,195 30,-126 41,-85 -24,-191z"/>
   <path class="fil9" d="M13707 7896l47 -219c-305,16 -242,254 -47,219z"/>
   <path class="fil9" d="M12496 7422l-86 -45 -106 11c-71,65 -56,26 -37,131l232 27 -3 -124z"/>
   <path class="fil8" d="M12873 10130c108,56 48,46 154,6l-11 -181c-112,-37 -51,-39 -161,13l18 162z"/>
   <path class="fil9" d="M13938 9094l85 15 51 -211c-145,-7 -144,-30 -206,105 25,121 -23,32 70,91z"/>
   <path class="fil10" d="M12832 8275c120,26 79,40 186,-10l-2 -141c-109,-40 -59,-36 -143,1l-42 149z"/>
   <path class="fil9" d="M12405 10756c-199,-12 -233,199 21,187l-21 -187z"/>
   <path class="fil3 str1" d="M7890 19275l686 0c-91,391 -685,2095 -681,2242l458 0c53,-70 855,-2765 863,-2932l-1359 -6c-14,190 -30,539 33,695z"/>
   <path class="fil11" d="M6030 13511l311 -322 165 159 -637 660c-124,66 -216,105 -274,116 -58,11 -104,1 -137,-31 -41,-40 -44,-103 -10,-191 34,-87 104,-200 210,-338 105,-138 235,-287 390,-447 163,-169 313,-308 449,-419 136,-110 250,-182 343,-218 72,-27 127,-22 167,16 38,37 52,80 41,129 -11,49 -42,112 -92,190 -50,77 -120,169 -211,275l-182 -17c52,-63 88,-114 108,-155 20,-41 22,-69 6,-84 -23,-23 -77,-4 -161,55 -85,60 -203,168 -355,326 -162,168 -270,294 -325,379 -55,85 -70,140 -45,165 12,12 31,15 57,10 26,-5 64,-19 113,-43l141 -146 -71 -69zm-295 798l1495 -1548 178 172c33,32 46,69 39,111 -7,42 -38,103 -94,182 -55,79 -131,168 -226,266 -83,86 -159,156 -227,211 -68,54 -128,94 -180,119 -33,16 -65,24 -96,25 -6,31 -15,59 -27,84 -8,16 -29,49 -61,98 -33,49 -59,86 -78,111l-382 499 -121 -117 400 -528c52,-68 84,-114 96,-138 15,-31 18,-52 8,-61l-9 -9 -607 628 -107 -104zm996 -817l45 44c5,5 21,7 48,6 13,0 35,-10 64,-32 29,-22 61,-49 93,-83 48,-50 82,-92 100,-125 19,-34 19,-60 -1,-79l-47 -45 -304 315zm-146 1144l-122 -118 -263 239 -109 -105 1625 -1422 117 113 -1365 1673 -112 -108 230 -272zm301 -356l499 -593 -575 520 76 74zm1126 -763l107 103 -1126 1166 167 161 -368 381 -274 -264 1495 -1548zm-747 1438l103 99 -416 431 -103 -99 416 -431zm1439 -769l200 193c33,32 23,94 -30,185 -53,91 -133,191 -238,300 -88,92 -171,164 -247,217 -51,35 -96,58 -137,67 -1,51 -27,114 -78,191 -51,77 -124,164 -219,262 -78,80 -151,148 -222,205 -70,56 -130,96 -181,119 -31,14 -61,18 -89,11 -38,-9 -61,-17 -68,-25l-184 -178 1495 -1548zm-479 711l46 45c17,16 41,14 72,-5 32,-20 71,-54 117,-102 44,-45 74,-83 92,-115 18,-32 19,-56 3,-71l-47 -46 -284 294zm-587 608l55 53c18,18 45,16 81,-6 36,-22 77,-58 125,-107 44,-46 76,-86 95,-121 19,-35 20,-62 1,-80l-54 -52 -303 314zm1457 -941l286 277 -319 330 -179 -173 -238 246 166 161 -305 316 -166 -161 -294 305 184 178 -339 351 -292 -282 1495 -1548zm-1128 1902l1495 -1548 178 172c33,32 46,69 39,111 -7,42 -38,103 -94,182 -55,79 -131,168 -226,266 -83,86 -159,156 -227,211 -68,54 -128,94 -180,119 -33,16 -65,24 -96,25 -6,31 -15,59 -27,84 -8,16 -29,49 -61,98 -33,49 -59,86 -78,111l-382 499 -121 -117 400 -528c52,-68 84,-114 96,-138 15,-31 18,-52 8,-61l-9 -9 -607 628 -107 -104zm996 -817l45 44c5,5 21,7 48,6 13,0 35,-10 64,-32 29,-22 61,-49 93,-83 48,-50 82,-92 100,-125 19,-34 19,-60 -1,-79l-47 -45 -304 315zm889 -353l100 96 -697 982 827 -856 101 97 -1495 1548 -101 -97 691 -975 -821 850 -100 -97 1495 -1548zm-622 1897l-122 -118 -263 239 -109 -105 1625 -1422 117 113 -1365 1673 -112 -108 230 -272zm301 -356l499 -593 -575 520 76 74zm-367 786l1495 -1548 178 172c33,32 46,69 39,111 -7,42 -38,103 -94,182 -55,79 -131,168 -226,266 -83,86 -159,156 -227,211 -68,54 -128,94 -180,119 -33,16 -65,24 -96,25 -6,31 -15,59 -27,84 -8,16 -29,49 -61,98 -33,49 -59,86 -78,111l-382 499 -121 -117 400 -528c52,-68 84,-114 96,-138 15,-31 18,-52 8,-61l-9 -9 -607 628 -107 -104zm996 -817l45 44c5,5 21,7 48,6 13,0 35,-10 64,-32 29,-22 61,-49 93,-83 48,-50 82,-92 100,-125 19,-34 19,-60 -1,-79l-47 -45 -304 315zm890 -352l159 153c31,30 38,74 21,130 -18,57 -54,127 -110,210 -56,83 -127,175 -212,275 -86,100 -179,202 -281,308 -160,165 -288,290 -384,373 -96,83 -182,148 -256,195 -74,47 -130,73 -167,77 -51,5 -85,-1 -104,-19l-159 -153 1495 -1548zm-232 454l-816 845 26 25c22,22 49,26 80,13 31,-13 76,-45 134,-95 59,-50 148,-137 268,-261 158,-164 261,-282 307,-354 46,-72 56,-122 28,-148l-27 -26zm626 -73l107 103 -1495 1548 -107 -103 1495 -1548zm201 194l100 96 -697 982 827 -856 101 97 -1495 1548 -101 -97 691 -975 -821 850 -100 -97 1495 -1548zm-344 1165c244,-253 450,-434 617,-544 168,-110 279,-138 335,-84 58,56 35,168 -67,336 -102,168 -274,377 -514,626 -175,181 -325,323 -450,425 -125,103 -232,174 -320,213 -88,40 -151,41 -189,4 -39,-38 -44,-97 -16,-177 28,-81 93,-188 193,-324 100,-136 238,-294 413,-475zm105 105c-151,156 -253,275 -306,356 -53,81 -68,132 -46,154 23,22 73,6 150,-49 77,-55 200,-169 367,-342 141,-146 237,-259 289,-339 52,-80 66,-130 44,-152 -22,-21 -72,-4 -151,52 -79,56 -195,162 -347,320zm599 846l-29 217c-120,111 -224,200 -314,266 -90,66 -164,109 -223,130 -59,21 -104,16 -135,-14 -38,-36 -45,-91 -21,-162 23,-72 86,-178 188,-318 102,-140 245,-306 431,-498 247,-256 453,-439 616,-547 163,-108 273,-135 329,-82 44,42 40,114 -11,217 -51,103 -150,242 -295,417l-185 3c42,-50 72,-88 90,-114 29,-42 49,-77 60,-105 10,-28 10,-47 -1,-58 -24,-23 -85,2 -182,77 -72,55 -175,152 -309,291 -166,172 -274,295 -324,370 -50,75 -64,123 -43,143 20,20 61,9 121,-32 60,-41 139,-108 239,-202zm10 739l-122 -118 -263 239 -109 -105 1625 -1422 117 113 -1365 1673 -112 -108 230 -272zm301 -356l499 -593 -575 520 76 74zm1126 -763l200 193c33,32 23,94 -30,185 -53,91 -133,191 -238,300 -88,92 -171,164 -247,217 -51,35 -96,58 -137,67 -1,51 -27,114 -78,191 -51,77 -124,164 -219,262 -78,80 -151,148 -222,205 -70,56 -130,96 -181,119 -31,14 -61,18 -89,11 -38,-9 -61,-17 -68,-25l-184 -178 1495 -1548zm-479 711l46 45c17,16 41,14 72,-5 32,-20 71,-54 117,-102 44,-45 74,-83 92,-115 18,-32 19,-56 3,-71l-47 -46 -284 294zm-587 608l55 53c18,18 45,16 81,-6 36,-22 77,-58 125,-107 44,-46 76,-86 95,-121 19,-35 20,-62 1,-80l-54 -52 -303 314zm414 549l-122 -118 -263 239 -109 -105 1625 -1422 117 113 -1365 1673 -112 -108 230 -272zm301 -356l499 -593 -575 520 76 74zm1126 -763l107 103 -1126 1166 167 161 -368 381 -274 -264 1495 -1548zm338 327l107 103 -1126 1166 167 161 -368 381 -274 -264 1495 -1548zm338 327l286 277 -319 330 -179 -173 -238 246 166 161 -305 316 -166 -161 -294 305 184 178 -339 351 -292 -282 1495 -1548zm-1128 1902l1495 -1548 178 172c33,32 46,69 39,111 -7,42 -38,103 -94,182 -55,79 -131,168 -226,266 -83,86 -159,156 -227,211 -68,54 -128,94 -180,119 -33,16 -65,24 -96,25 -6,31 -15,59 -27,84 -8,16 -29,49 -61,98 -33,49 -59,86 -78,111l-382 499 -121 -117 400 -528c52,-68 84,-114 96,-138 15,-31 18,-52 8,-61l-9 -9 -607 628 -107 -104zm996 -817l45 44c5,5 21,7 48,6 13,0 35,-10 64,-32 29,-22 61,-49 93,-83 48,-50 82,-92 100,-125 19,-34 19,-60 -1,-79l-47 -45 -304 315zm119 400c244,-253 450,-434 617,-544 168,-110 279,-138 335,-84 58,56 35,168 -67,336 -102,168 -274,377 -514,626 -175,181 -325,323 -450,425 -125,103 -232,174 -320,213 -88,40 -151,41 -189,4 -39,-38 -44,-97 -16,-177 28,-81 93,-188 193,-324 100,-136 238,-294 413,-475zm105 105c-151,156 -253,275 -306,356 -53,81 -68,132 -46,154 23,22 73,6 150,-49 77,-55 200,-169 367,-342 141,-146 237,-259 289,-339 52,-80 66,-130 44,-152 -22,-21 -72,-4 -151,52 -79,56 -195,162 -347,320z"/>
   <g>
    <path class="fil2" d="M10648 10824c923,0 1672,-748 1672,-1672 0,-923 -748,-1672 -1672,-1672 -923,0 -1672,748 -1672,1672 0,923 748,1672 1672,1672zm0 -197c815,0 1475,-660 1475,-1475 0,-815 -660,-1475 -1475,-1475 -815,0 -1475,660 -1475,1475 0,815 660,1475 1475,1475z"/>
    <polygon class="fil2" points="10648,7830 10944,8745 11905,8744 11126,9307 11425,10221 10648,9654 9872,10221 10171,9307 9392,8744 10353,8745 "/>
   </g>
  </g>
 </g>
</svg>
